<svg xmlns="http://www.w3.org/2000/svg">
    <symbol id="vk" viewBox="0 0 125.18 71.43">
        <path d="M124.52,64.51a8.69,8.69,0,0,0-.42-.82q-3.25-5.86-12.45-14.4l-.13-.14-.07-.06-.06-.07h-.07q-4.17-4-5.28-5.34a5,5,0,0,1-.91-5.28q.78-2,5.87-8.54,2.67-3.45,4.23-5.54,11.28-15,9.78-19.16l-.39-.65a3.82,3.82,0,0,0-2-1.08,10.3,10.3,0,0,0-4.17-.16L99.66,3.4a2.5,2.5,0,0,0-1.3,0l-.86.2-.32.17L96.92,4a2.93,2.93,0,0,0-.72.68,5.22,5.22,0,0,0-.65,1.14,105.75,105.75,0,0,1-7,14.67q-2.42,4-4.44,7a33.43,33.43,0,0,1-3.38,4.36,23.14,23.14,0,0,1-2.48,2.25c-.74.57-1.3.8-1.69.72l-1.11-.26A4.37,4.37,0,0,1,74,33a7.12,7.12,0,0,1-.75-2.54c-.13-1-.21-1.9-.23-2.64s0-1.79,0-3.13.06-2.26.06-2.74c0-1.65,0-3.44.1-5.38s.12-3.46.16-4.59.07-2.32.07-3.59a15.19,15.19,0,0,0-.23-3,9.85,9.85,0,0,0-.69-2.09,3.51,3.51,0,0,0-1.33-1.56A7.69,7.69,0,0,0,69,.86,44,44,0,0,0,60.23,0Q48.11-.12,44.65,1.58a8.66,8.66,0,0,0-2.48,1.95c-.78,1-.89,1.48-.33,1.57q3.91.59,5.55,2.8l.39.78a12.36,12.36,0,0,1,.91,3,30,30,0,0,1,.58,4.75,50,50,0,0,1,0,8.15c-.21,2.26-.42,4-.61,5.28a10.86,10.86,0,0,1-.88,3.07A13,13,0,0,1,47,34.36a1.16,1.16,0,0,1-.32.32,4.82,4.82,0,0,1-1.76.33,4.12,4.12,0,0,1-2.22-.91A15.66,15.66,0,0,1,40,31.59a33.7,33.7,0,0,1-3.17-4.47c-1.17-1.91-2.38-4.16-3.64-6.77l-1-1.89q-1-1.83-2.67-5.32t-3-6.74A4.31,4.31,0,0,0,24.9,4.31l-.33-.19a4.32,4.32,0,0,0-1-.56A6.8,6.8,0,0,0,22,3.14L4.17,3.27c-1.82,0-3.06.41-3.71,1.24L.19,4.9a2.23,2.23,0,0,0-.19,1A5.18,5.18,0,0,0,.39,7.7Q4.31,16.9,8.9,25.43t8,13.75Q20.27,44.4,23.79,49c2.35,3.09,3.9,5.06,4.66,5.94s1.36,1.51,1.79,1.95l1.63,1.56a36.66,36.66,0,0,0,4.6,3.75,77.21,77.21,0,0,0,6.71,4.3A36.5,36.5,0,0,0,51.75,70a29.47,29.47,0,0,0,9.52,1.07h7.5a5.19,5.19,0,0,0,3.45-1.43l.26-.32A4.37,4.37,0,0,0,73,68.09a6.3,6.3,0,0,0,.24-1.79,21,21,0,0,1,.42-5.06,12.88,12.88,0,0,1,1.11-3.38,8.49,8.49,0,0,1,1.4-1.93A5.57,5.57,0,0,1,77.24,55a4,4,0,0,1,.52-.23c1-.35,2.27,0,3.68,1a22,22,0,0,1,4,3.78c1.24,1.5,2.72,3.19,4.46,5a30.58,30.58,0,0,0,4.56,4.17l1.31.79A15.76,15.76,0,0,0,99.14,71a7.22,7.22,0,0,0,3.65.33l16.68-.26a7.6,7.6,0,0,0,3.85-.82A3.25,3.25,0,0,0,125,68.45a5.14,5.14,0,0,0,0-2.22,8.5,8.5,0,0,0-.46-1.72Z"/>
    </symbol>
    <symbol id="fb" viewBox="0 0 36.71 36.71">
        <path class="cls-1" d="M36.71,34.69a2,2,0,0,1-2,2H25.33V22.5H30.1L30.82,17H25.33V13.42c0-1.61.44-2.7,2.75-2.7H31v-5a41.29,41.29,0,0,0-4.28-.22c-4.23,0-7.12,2.59-7.12,7.33V17H14.82V22.5h4.79V36.71H2a2,2,0,0,1-2-2V2A2,2,0,0,1,2,0H34.68a2,2,0,0,1,2,2Z"/>
    </symbol>
    <symbol id="inst" viewBox="0 0 36.66 36.66">
        <path class="cls-1" d="M32.3,0H4.36A4.36,4.36,0,0,0,0,4.35v28a4.35,4.35,0,0,0,4.36,4.34H32.3a4.35,4.35,0,0,0,4.36-4.34v-28A4.36,4.36,0,0,0,32.3,0M26.35,5.73A1.15,1.15,0,0,1,27.5,4.58h3.43a1.15,1.15,0,0,1,1.15,1.15V9.17a1.14,1.14,0,0,1-1.15,1.14H27.5a1.14,1.14,0,0,1-1.15-1.14Zm-8,5.61a7,7,0,1,1-7,7,7,7,0,0,1,7.05-7M33.23,32.08a1.16,1.16,0,0,1-1.15,1.15H4.58a1.15,1.15,0,0,1-1.14-1.15V14.89H8a7,7,0,0,0-.8,3.48,11.16,11.16,0,0,0,22.31,0,5.9,5.9,0,0,0-.89-3.48h4.59Z"/>
    </symbol>
    <symbol id="tw" viewBox="0 0 37.45 31.21">
        <path class="cls-1" d="M36.42.58a15.43,15.43,0,0,1-4.88,1.91A7.59,7.59,0,0,0,25.93,0a7.78,7.78,0,0,0-7.68,7.88,7.5,7.5,0,0,0,.2,1.79A21.63,21.63,0,0,1,2.61,1.44a8,8,0,0,0-1,4A7.9,7.9,0,0,0,5,12,7.55,7.55,0,0,1,1.5,11v.1A7.83,7.83,0,0,0,7.67,18.8a7.09,7.09,0,0,1-2,.28,7.67,7.67,0,0,1-1.45-.14,7.71,7.71,0,0,0,7.18,5.47,15.21,15.21,0,0,1-9.55,3.37A13.84,13.84,0,0,1,0,27.67a21.32,21.32,0,0,0,11.78,3.54c14.13,0,21.86-12,21.86-22.42,0-.34,0-.68,0-1A15.63,15.63,0,0,0,37.45,3.7,15.12,15.12,0,0,1,33,4.94,7.86,7.86,0,0,0,36.42.58"/>
    </symbol>
</svg>